<?xml version="1.0" encoding="UTF-8"?> <svg xmlns="http://www.w3.org/2000/svg" width="230" height="64" viewBox="0 0 230 64" fill="none"><path d="M62.215 54.745L43.581 27.4163C43.4655 27.2452 43.4027 27.044 43.4027 26.8369H21.533C21.533 27.044 21.4703 27.2452 21.3548 27.4163L2.72077 54.745C1.72968 56.1984 1.62415 57.9982 2.43842 59.5593C3.25268 61.1205 4.78425 62.052 6.53399 62.052H58.4004C60.1501 62.052 61.6817 61.1205 62.496 59.5593C63.3102 57.9982 63.2047 56.1984 62.2136 54.745H62.215ZM49.1126 49.2939C48.1044 52.0008 45.4962 53.8193 42.6227 53.8193C41.9382 53.8193 41.258 53.7158 40.6006 53.5131L40.5564 53.5001L40.5264 53.5346C39.8861 54.2663 38.9635 54.6847 37.9924 54.6847C37.5931 54.6847 37.2023 54.6128 36.8301 54.4719C36.6619 54.4087 36.4965 54.3296 36.3396 54.239L36.294 54.2132L36.2555 54.2491C34.9763 55.4307 33.3164 56.0819 31.5795 56.0819C30.7467 56.0819 29.9281 55.931 29.1452 55.6349L28.4051 55.3531L28.3809 55.343L28.3566 55.3517C28.2554 55.3876 28.1513 55.4077 28.0472 55.4077L28.0229 55.4049L28.003 55.4235C28.003 55.4235 27.993 55.4307 27.9859 55.4379L25.7641 57.715C25.0611 58.4366 24.08 58.8492 23.076 58.8492C23.0318 58.8492 22.9876 58.8492 22.9434 58.8463C21.891 58.8089 20.8928 58.3216 20.2054 57.5094C19.2414 56.3709 19.056 54.7364 19.7334 53.3449L19.7662 53.2773L19.6963 53.2471C19.4025 53.1221 19.1173 52.9754 18.8464 52.8116C15.9544 51.0592 14.7223 47.4927 15.9173 44.3316C16.2753 43.3843 16.8471 42.5103 17.5701 41.803L17.5943 41.78L17.5915 41.7455C17.5073 40.7234 17.6514 39.674 18.0093 38.7138C19.0175 36.0069 21.6186 34.187 24.4792 34.187C24.6475 34.187 24.8172 34.1928 24.9841 34.2057L25.0226 34.2086L25.0454 34.1769C25.891 33.0356 27.2443 32.3542 28.6632 32.3542C29.2037 32.3542 29.7342 32.4519 30.2419 32.6431C30.5385 32.7552 30.8265 32.9019 31.0946 33.0758L31.126 33.0959L31.1602 33.0816C32.4679 32.5166 33.854 32.2305 35.2829 32.2305C36.5421 32.2305 37.7742 32.4548 38.945 32.899C41.1354 33.7284 43.0063 35.2997 44.2127 37.3208L44.227 37.3438L44.2527 37.3524C44.3111 37.3711 44.3682 37.3913 44.4238 37.4128C46.2149 38.0913 47.3629 39.7718 47.3472 41.6952V41.7268L47.37 41.7484C49.4163 43.6804 50.1008 46.6417 49.114 49.2911L49.1126 49.2939Z" fill="#80DBFF"></path><path d="M43.4285 26.8588V13.6019C43.4285 13.5818 43.4128 13.566 43.3928 13.566H21.593C21.5731 13.566 21.5574 13.5818 21.5574 13.6019V26.8588C21.5574 26.8588 21.5574 26.8645 21.5574 26.8674C21.5574 26.8717 21.5574 26.876 21.5574 26.8818C21.5574 26.8918 21.5602 26.9004 21.5674 26.9076C21.5745 26.9148 21.583 26.9191 21.593 26.9191H43.3957C43.4057 26.9191 43.4142 26.9148 43.4214 26.9076C43.4285 26.9004 43.4314 26.8918 43.4314 26.8818C43.4314 26.8774 43.4314 26.8731 43.4314 26.8674C43.4314 26.8645 43.4314 26.8616 43.4314 26.8588H43.4285Z" fill="white"></path><path d="M46.0794 1.99678H18.9063C17.235 1.99678 15.876 3.36674 15.876 5.05152V8.5447C15.876 10.2295 17.235 11.5994 18.9063 11.5994H46.0794C47.7508 11.5994 49.1098 10.2295 49.1098 8.5447V5.05152C49.1098 3.36674 47.7508 1.99678 46.0794 1.99678Z" fill="white"></path><path d="M47.6524 46.4533C47.6495 46.416 47.6181 46.3872 47.5811 46.3872H37.4705C36.9528 46.3872 36.5321 45.9631 36.5321 45.4413V42.3765C36.5321 42.3492 36.5179 42.3248 36.4936 42.3133C35.782 41.9424 35.3385 41.2107 35.3385 40.4042C35.3385 39.2197 36.2954 38.2551 37.4705 38.2551C38.6455 38.2551 39.6024 39.2197 39.6024 40.4042C39.6024 41.2107 39.1603 41.941 38.4473 42.3133C38.4231 42.3262 38.4088 42.3507 38.4088 42.3765V44.4236C38.4088 44.4638 38.4402 44.4954 38.4801 44.4954H46.9536C46.9793 44.4954 47.0021 44.4825 47.0149 44.4595C47.0278 44.4379 47.0278 44.4106 47.0149 44.3876C46.6969 43.8227 46.2834 43.3325 45.7843 42.9285C45.5304 42.723 45.3992 42.3938 45.4406 42.0675C45.5989 40.8398 44.9072 39.6769 43.7579 39.2413C43.6552 39.2025 43.5411 39.1694 43.3985 39.1378C43.1333 39.0788 42.9065 38.9063 42.7767 38.6663C41.7942 36.8521 40.197 35.4534 38.279 34.7275C37.3207 34.3652 36.3125 34.1812 35.2829 34.1812C34.1435 34.1812 33.0326 34.404 31.9831 34.8439C31.956 34.8554 31.9389 34.8813 31.9389 34.91V41.8101C31.9389 42.332 31.5182 42.756 31.0005 42.756H27.9588C27.9317 42.756 27.9075 42.7704 27.8961 42.7948C27.5281 43.5122 26.8023 43.9592 26.0023 43.9592C24.8272 43.9592 23.8703 42.9947 23.8703 41.8101C23.8703 40.6256 24.8272 39.661 26.0023 39.661C26.8023 39.661 27.5267 40.1067 27.8961 40.8254C27.9089 40.8499 27.9331 40.8642 27.9588 40.8642H29.9895C30.0294 40.8642 30.0608 40.8326 30.0608 40.7924V34.7591C30.0608 34.7346 30.0479 34.7116 30.0266 34.6987C29.8797 34.6067 29.7285 34.5305 29.5759 34.473C29.2793 34.3609 28.9699 34.3048 28.6547 34.3048C27.6722 34.3048 26.7795 34.8468 26.3231 35.7208C26.1606 36.0327 25.8426 36.2268 25.4946 36.2268C25.4404 36.2268 25.3862 36.2225 25.3335 36.2124C25.0525 36.1635 24.7645 36.1391 24.4793 36.1391C22.3915 36.1391 20.4949 37.4645 19.7591 39.4382C19.4482 40.2734 19.3598 41.1791 19.5053 42.0588C19.5609 42.3923 19.4339 42.7316 19.1744 42.9458C18.497 43.505 17.9751 44.2381 17.6628 45.0633C17.4717 45.5678 17.3662 46.104 17.3477 46.6546C17.3477 46.6747 17.3548 46.6934 17.3676 46.7063C17.3805 46.7207 17.399 46.7279 17.419 46.7279H21.1908C21.2179 46.7279 21.2422 46.7135 21.2536 46.6891C21.6215 45.9718 22.3473 45.5247 23.1473 45.5247C24.3224 45.5247 25.2793 46.4893 25.2793 47.6738C25.2793 48.8583 24.3224 49.8229 23.1473 49.8229C22.3473 49.8229 21.6229 49.3773 21.2536 48.6585C21.2407 48.6341 21.2165 48.6197 21.1908 48.6197H17.7683C17.7441 48.6197 17.7227 48.6312 17.7099 48.6513C17.697 48.6714 17.6942 48.6959 17.7027 48.7174C18.1134 49.7755 18.8607 50.6725 19.8047 51.2446C20.2482 51.5134 20.7331 51.7104 21.2464 51.8282C21.6357 51.9174 21.9481 52.2149 22.0607 52.6016C22.1734 52.9898 22.0693 53.411 21.7883 53.6999C21.0682 54.4373 20.9969 55.596 21.6258 56.3363C21.978 56.7518 22.4657 56.9904 23.0019 57.0105C23.0233 57.0105 23.0461 57.0105 23.0675 57.0105C23.5794 57.0105 24.0586 56.8078 24.4179 56.4413L26.6411 54.1657C26.7652 54.0392 26.9064 53.9256 27.0604 53.8293C27.0818 53.8163 27.0946 53.7933 27.0946 53.7689V48.6369C27.0946 48.1151 27.5153 47.6911 28.033 47.6911H31.1075C31.1346 47.6911 31.1588 47.6767 31.1702 47.6522C31.5381 46.9349 32.264 46.4878 33.064 46.4878C34.2391 46.4878 35.1959 47.4524 35.1959 48.6369C35.1959 49.8215 34.2391 50.786 33.064 50.786C32.264 50.786 31.5396 50.3404 31.1702 49.6216C31.1574 49.5972 31.1332 49.5828 31.1075 49.5828H29.0426C29.0027 49.5828 28.9713 49.6145 28.9713 49.6547V53.5518C28.9713 53.582 28.9898 53.6093 29.0183 53.6194L29.0369 53.6251C29.0369 53.6251 29.0469 53.628 29.0526 53.6309L29.8027 53.917C30.3717 54.1326 30.9692 54.2418 31.5752 54.2418C33.0925 54.2418 34.5143 53.5633 35.4769 52.3803C35.6508 52.1661 35.909 52.0396 36.1842 52.0338H36.2027C36.4708 52.0338 36.7261 52.1488 36.9043 52.3515C37.064 52.5326 37.2608 52.6692 37.4862 52.754C37.6501 52.8158 37.8213 52.8474 37.9967 52.8474C38.5685 52.8474 39.0933 52.5139 39.3343 51.9979C39.4883 51.6687 39.822 51.4545 40.1842 51.4545C40.3168 51.4545 40.4452 51.4818 40.5664 51.5364C40.6748 51.5853 40.766 51.6227 40.8516 51.6557C41.422 51.8714 42.0167 51.9806 42.6213 51.9806C44.7147 51.9806 46.6156 50.6552 47.3515 48.6829C47.6181 47.9685 47.7194 47.2181 47.6538 46.4533H47.6524Z" fill="#FF5C8D"></path><path d="M63.8165 53.5262L45.4206 26.5453V13.6047H46.0866C48.8517 13.6047 51.1019 11.3363 51.1019 8.54895V5.05577C51.1019 2.26841 48.8517 0 46.0866 0H18.9134C16.1483 0 13.8981 2.26841 13.8981 5.05577V8.54895C13.8981 11.3363 16.1483 13.6047 18.9134 13.6047H19.5794V26.5453L1.18352 53.5262C-0.236814 55.6092 -0.387974 58.1895 0.77995 60.4263C1.94787 62.6645 4.14254 64 6.65094 64H58.3491C60.8575 64 63.0521 62.6645 64.22 60.4263C65.388 58.1881 65.2368 55.6092 63.8165 53.5262ZM15.9188 8.54895V5.05577C15.9188 3.39112 17.2621 2.03697 18.9134 2.03697H46.0866C47.7379 2.03697 49.0812 3.39112 49.0812 5.05577V8.54895C49.0812 10.2136 47.7379 11.5678 46.0866 11.5678H18.9134C17.2621 11.5678 15.9188 10.2136 15.9188 8.54895ZM62.4318 59.479C61.619 61.0344 60.0931 61.9645 58.3491 61.9645H6.65094C4.9069 61.9645 3.38104 61.0358 2.5682 59.479C1.75536 57.9236 1.86089 56.1296 2.84913 54.6805L21.4233 27.4395C21.5388 27.2698 21.6015 27.0686 21.6015 26.863V13.6062H43.4013V26.863C43.4013 27.0686 43.4627 27.2698 43.5796 27.4395L62.1537 54.6805C63.142 56.1296 63.2461 57.9236 62.4347 59.479H62.4318Z" fill="black"></path><path d="M47.4055 41.7225C47.4212 39.802 46.259 38.0626 44.4365 37.3726C44.3795 37.351 44.3224 37.3309 44.2625 37.3108C43.0447 35.2709 41.1766 33.6983 38.9591 32.8588C36.4236 31.8985 33.6015 31.9718 31.1216 33.0428C30.8492 32.8645 30.5598 32.7179 30.256 32.6029C28.3266 31.8741 26.1775 32.5425 24.9783 34.1612C21.9194 33.934 19.0274 35.7697 17.9308 38.7152C17.5657 39.6927 17.4231 40.7421 17.5087 41.7786C16.7757 42.4945 16.2038 43.3671 15.8388 44.3331C14.6309 47.5272 15.8759 51.1311 18.7978 52.9007C19.073 53.0675 19.3611 53.2141 19.6563 53.3406C18.9875 54.7149 19.1344 56.3996 20.1383 57.5842C20.8385 58.4107 21.8552 58.9067 22.9276 58.9455C22.9732 58.9469 23.0175 58.9484 23.0631 58.9484C24.0884 58.9484 25.0809 58.5315 25.8025 57.7926L28.0243 55.5156C28.0243 55.5156 28.0328 55.5098 28.0357 55.5069C28.1526 55.5069 28.2653 55.4839 28.3694 55.4466L29.1095 55.7283C31.6008 56.6713 34.373 56.1021 36.2938 54.3282C36.4536 54.4216 36.6218 54.5007 36.7944 54.5668C38.1463 55.0786 39.6522 54.6574 40.5691 53.6094C44.0715 54.6947 47.8633 52.8504 49.1695 49.3472C50.172 46.6575 49.4604 43.6632 47.4084 41.7254L47.4055 41.7225ZM47.2758 48.6269C46.3103 51.2159 43.4369 52.5298 40.8686 51.5581C40.773 51.5221 40.6803 51.4819 40.5876 51.4402C40.0871 51.2145 39.4967 51.4344 39.2614 51.9361C38.952 52.5974 38.1791 52.9122 37.5017 52.6563C37.2878 52.5744 37.101 52.4465 36.9484 52.2725C36.7516 52.0497 36.465 51.9246 36.1726 51.9318C35.8775 51.9376 35.5994 52.0741 35.4111 52.3041C34.0593 53.9659 31.8104 54.5754 29.8168 53.8193L29.0667 53.5332C29.0553 53.5289 29.0439 53.526 29.0325 53.5217V49.6246H31.0974C31.4639 50.339 32.2011 50.8278 33.0539 50.8278C34.2703 50.8278 35.2571 49.833 35.2571 48.6068C35.2571 47.3806 34.2703 46.3859 33.0539 46.3859C32.2011 46.3859 31.4639 46.8746 31.0974 47.5891H28.0228C27.4653 47.5891 27.0132 48.0448 27.0132 48.6068V53.7388C26.8578 53.8351 26.7123 53.9515 26.5811 54.0852L24.3579 56.3623C23.9957 56.7331 23.5123 56.9258 22.9961 56.9085C22.4798 56.8898 22.0107 56.6598 21.6713 56.2602C21.0666 55.5472 21.1365 54.4317 21.831 53.7201C22.1305 53.4125 22.2417 52.9654 22.1219 52.5514C22.0021 52.1388 21.6698 51.824 21.2549 51.7277C20.7501 51.6112 20.2723 51.4172 19.8345 51.1527C18.8677 50.5676 18.1561 49.6749 17.7611 48.66H21.1836C21.5501 49.3745 22.2873 49.8632 23.1401 49.8632C24.3565 49.8632 25.3433 48.8685 25.3433 47.6422C25.3433 46.416 24.3565 45.4213 23.1401 45.4213C22.2873 45.4213 21.5501 45.91 21.1836 46.6245H17.4117C17.4288 46.0955 17.5301 45.5665 17.7226 45.0576C18.0306 44.2439 18.5454 43.5223 19.2128 42.9703C19.4923 42.7389 19.6278 42.3752 19.5679 42.0158C19.4253 41.149 19.5108 40.2563 19.8174 39.4325C20.5547 37.4531 22.4328 36.1809 24.4706 36.1809C24.7487 36.1809 25.031 36.2039 25.3134 36.2542C25.7469 36.3304 26.1747 36.1147 26.3786 35.7252C26.9776 34.5766 28.3366 34.0562 29.543 34.5119C29.6956 34.5694 29.8425 34.6442 29.9808 34.7318V40.7651H27.9501C27.5836 40.0507 26.8464 39.5619 25.9936 39.5619C24.7772 39.5619 23.7904 40.5567 23.7904 41.7829C23.7904 43.0091 24.7772 44.0039 25.9936 44.0039C26.8464 44.0039 27.5836 43.5151 27.9501 42.8007H30.9918C31.5494 42.8007 32.0015 42.345 32.0015 41.7829V34.8828C33.9851 34.0519 36.2268 34.003 38.2461 34.7678C40.1484 35.488 41.7313 36.8752 42.7067 38.675C42.8465 38.9337 43.0903 39.1177 43.3755 39.181C43.5139 39.2112 43.6251 39.2442 43.7249 39.2816C44.8429 39.7057 45.516 40.8356 45.362 42.0302C45.3164 42.3823 45.4561 42.7331 45.7314 42.9559C46.2348 43.3627 46.6397 43.8529 46.9449 44.3934H38.4714V42.3464C39.1802 41.977 39.665 41.2338 39.665 40.3741C39.665 39.1479 38.6782 38.1532 37.4618 38.1532C36.2454 38.1532 35.2586 39.1479 35.2586 40.3741C35.2586 41.2338 35.7434 41.977 36.4521 42.3464V45.4112C36.4521 45.9733 36.9042 46.429 37.4618 46.429H47.5724C47.6351 47.1578 47.5424 47.9082 47.2743 48.6284L47.2758 48.6269Z" fill="black"></path><path d="M90.4111 43.9983C89.261 43.9983 88.2869 43.8295 87.4811 43.4894C86.8972 43.2428 86.3872 42.9339 85.9486 42.5574C85.714 42.3575 85.3595 42.4484 85.255 42.7392L85.0357 43.3544C84.9719 43.531 84.8087 43.6478 84.6251 43.6478H81.4376C81.1597 43.6478 80.9531 43.3882 81.0092 43.1104L85.7522 20.3531C85.7956 20.148 85.9741 20 86.1806 20H89.9393C90.2173 20 90.4238 20.2596 90.3677 20.5374L89.0111 27.0406C88.9372 27.3963 89.2865 27.6818 89.6129 27.5365C90.9211 26.9549 92.3465 26.6668 93.8918 26.6668C95.3147 26.6668 96.5336 26.9705 97.5434 27.578C98.5532 28.1855 99.2723 29.1149 99.6982 30.3662C100.124 31.6175 100.139 33.2245 99.7492 35.1897C99.1499 38.183 98.0713 40.4001 96.5107 41.8383C94.9475 43.2766 92.9152 43.9957 90.4111 43.9957V43.9983ZM89.8246 40.5247C91.3163 40.5247 92.4664 40.0808 93.2696 39.1929C94.0729 38.3051 94.6594 36.9707 95.0266 35.1923C95.4167 33.3439 95.3938 32.0407 94.9577 31.28C94.5217 30.5194 93.5221 30.1403 91.9589 30.1403C90.508 30.1403 89.2687 30.5142 88.2385 31.2644C88.1492 31.3293 88.088 31.4306 88.0651 31.5396L86.558 38.8139C86.5325 38.9437 86.558 39.0813 86.6396 39.1825C86.9686 39.5927 87.3868 39.912 87.8942 40.1405C88.468 40.3975 89.1106 40.5273 89.8246 40.5273V40.5247Z" fill="black"></path><path d="M101.375 43.1099L104.637 27.3697C104.68 27.1647 104.859 27.0167 105.065 27.0167H108.543C108.798 27.0167 109 27.2399 108.98 27.497L108.944 27.9461C108.916 28.2888 109.26 28.5302 109.563 28.3848C110.255 28.0525 111.032 27.7436 111.897 27.4554C112.838 27.1439 113.751 26.9102 114.638 26.7597C114.936 26.7077 115.191 26.9881 115.13 27.2893L114.595 29.9425C114.559 30.1242 114.416 30.2618 114.238 30.2904C113.674 30.3812 113.067 30.5058 112.414 30.6668C111.644 30.8537 110.897 31.064 110.175 31.2976C109.541 31.5027 108.99 31.7156 108.523 31.9389C108.401 31.9986 108.314 32.1128 108.286 32.2478L105.991 43.2916C105.948 43.4967 105.769 43.6447 105.563 43.6447H101.804C101.526 43.6447 101.319 43.385 101.375 43.1073V43.1099Z" fill="black"></path><path d="M120.185 43.9974C118.782 43.9974 117.571 43.7404 116.548 43.2264C115.526 42.7123 114.802 41.8764 114.378 40.7185C113.953 39.5607 113.935 38.0342 114.327 36.139C114.741 34.1504 115.429 32.4552 116.395 31.0533C117.359 29.6488 118.52 28.5688 119.876 27.8082C121.23 27.0475 122.679 26.6685 124.219 26.6685C125.137 26.6685 125.93 26.7749 126.595 26.9852C127.052 27.1306 127.488 27.3513 127.904 27.6498C128.166 27.8393 128.533 27.7017 128.595 27.3798C128.635 27.1695 128.814 27.019 129.023 27.019H132.777C133.055 27.019 133.261 27.2786 133.205 27.5564L129.944 43.2965C129.9 43.5016 129.722 43.6495 129.515 43.6495H126.32C126.075 43.6495 125.876 43.4444 125.884 43.1952L125.889 42.9642C125.897 42.6111 125.517 42.393 125.221 42.5799C124.586 42.9797 123.938 43.2965 123.273 43.5275C122.365 43.8442 121.337 44 120.19 44L120.185 43.9974ZM122.181 40.5238C123.579 40.5238 124.867 40.0565 126.05 39.1193C126.134 39.0544 126.19 38.9558 126.213 38.8519L127.654 31.8191C127.679 31.6893 127.651 31.5491 127.567 31.4453C126.866 30.5756 125.907 30.1395 124.698 30.1395C121.781 30.1395 119.897 32.1385 119.047 36.139C118.68 37.8473 118.741 39.0051 119.236 39.6126C119.731 40.2201 120.713 40.5238 122.181 40.5238Z" fill="black"></path><path d="M135.457 43.1099L137.956 31.0614C138.014 30.7837 137.805 30.524 137.527 30.524H136.224C135.926 30.524 135.717 30.2281 135.809 29.9399L136.658 27.3205C136.716 27.1387 136.885 27.0141 137.073 27.0141H142.903C143.181 27.0141 143.387 27.2737 143.331 27.5515L140.07 43.2916C140.026 43.4967 139.848 43.6447 139.641 43.6447H135.882C135.605 43.6447 135.398 43.3851 135.454 43.1073L135.457 43.1099ZM139.177 23.4289L139.753 20.5992C139.797 20.3915 139.975 20.2435 140.182 20.2435H144.354C144.631 20.2435 144.838 20.5031 144.782 20.7783L144.206 23.6081C144.162 23.8157 143.984 23.9637 143.777 23.9637H139.605C139.328 23.9637 139.121 23.7041 139.177 23.4289Z" fill="black"></path><path d="M144.106 43.1107L147.367 27.3706C147.411 27.1655 147.589 27.0175 147.796 27.0175H151.272C151.529 27.0175 151.731 27.2408 151.708 27.503L151.687 27.7367C151.657 28.0923 152.024 28.3337 152.332 28.165C152.949 27.8275 153.648 27.5186 154.421 27.246C155.512 26.8592 156.621 26.6671 157.746 26.6671C161.882 26.6671 163.511 28.7725 162.639 32.9833L160.508 43.295C160.464 43.5001 160.286 43.6481 160.079 43.6481H156.321C156.043 43.6481 155.836 43.3885 155.892 43.1107L157.95 33.2274C158.179 32.1059 158.134 31.3089 157.812 30.8416C157.491 30.3743 156.757 30.1406 155.607 30.1406C154.757 30.1406 153.941 30.3042 153.161 30.6313C152.434 30.935 151.789 31.3115 151.221 31.758C151.136 31.8229 151.08 31.9189 151.06 32.0228L148.719 43.295C148.676 43.5001 148.497 43.6481 148.291 43.6481H144.532C144.254 43.6481 144.047 43.3885 144.103 43.1107H144.106Z" fill="black"></path><path d="M168.668 43.9983C165.636 43.9983 164.453 42.4328 165.118 39.2968L169.076 20.3531C169.119 20.148 169.298 20 169.504 20H173.263C173.541 20 173.747 20.2596 173.691 20.5374L169.841 38.9099C169.726 39.4941 169.744 39.899 169.892 40.1197C170.04 40.343 170.369 40.452 170.874 40.452C171.225 40.452 171.562 40.4235 171.883 40.3663C172.205 40.3092 172.452 40.5792 172.391 40.8882L171.924 43.2143C171.894 43.3726 171.781 43.5024 171.631 43.5518C170.731 43.8477 169.741 43.9957 168.668 43.9957V43.9983Z" fill="black"></path><path d="M181.247 43.9974C179.844 43.9974 178.633 43.7404 177.61 43.2264C176.588 42.7123 175.864 41.8764 175.44 40.7185C175.015 39.5607 174.997 38.0342 175.389 36.139C175.803 34.1504 176.491 32.4552 177.457 31.0533C178.424 29.6514 179.582 28.5688 180.938 27.8082C182.292 27.0475 183.741 26.6685 185.281 26.6685C186.199 26.6685 186.992 26.7749 187.657 26.9852C188.114 27.1306 188.55 27.3513 188.966 27.6498C189.228 27.8393 189.595 27.7017 189.657 27.3798C189.697 27.1695 189.876 27.019 190.085 27.019H193.839C194.117 27.019 194.323 27.2786 194.267 27.5564L191.006 43.2965C190.962 43.5016 190.784 43.6495 190.577 43.6495H187.382C187.137 43.6495 186.938 43.4444 186.946 43.1952L186.951 42.9642C186.959 42.6111 186.579 42.393 186.283 42.5799C185.648 42.9797 185 43.2965 184.335 43.5275C183.427 43.8442 182.399 44 181.252 44L181.247 43.9974ZM183.246 40.5238C184.643 40.5238 185.931 40.0565 187.114 39.1193C187.198 39.0544 187.255 38.9558 187.277 38.8519L188.718 31.8191C188.744 31.6893 188.716 31.5491 188.632 31.4453C187.93 30.5756 186.971 30.1395 185.763 30.1395C182.846 30.1395 180.961 32.1385 180.112 36.139C179.745 37.8473 179.806 39.0051 180.301 39.6126C180.795 40.2201 181.777 40.5238 183.246 40.5238Z" fill="black"></path><path d="M204.368 43.9983C203.217 43.9983 202.243 43.8295 201.438 43.4894C200.854 43.2428 200.344 42.9339 199.905 42.5574C199.67 42.3575 199.316 42.4484 199.211 42.7392L198.992 43.3544C198.928 43.531 198.765 43.6478 198.582 43.6478H195.397C195.119 43.6478 194.912 43.3882 194.968 43.1104L199.711 20.3531C199.755 20.148 199.933 20 200.14 20H203.898C204.176 20 204.383 20.2596 204.327 20.5374L202.97 27.0406C202.896 27.3963 203.246 27.6818 203.572 27.5365C204.88 26.9549 206.306 26.6668 207.851 26.6668C209.274 26.6668 210.493 26.9705 211.502 27.578C212.512 28.1855 213.231 29.1149 213.657 30.3662C214.083 31.6175 214.098 33.2245 213.708 35.1897C213.109 38.183 212.03 40.4001 210.47 41.8383C208.906 43.2766 206.874 43.9957 204.37 43.9957L204.368 43.9983ZM203.784 40.5247C205.275 40.5247 206.425 40.0808 207.229 39.1929C208.032 38.3051 208.618 36.9707 208.986 35.1923C209.376 33.3439 209.353 32.0407 208.917 31.28C208.481 30.5194 207.481 30.1403 205.918 30.1403C204.467 30.1403 203.228 30.5142 202.197 31.2644C202.108 31.3293 202.047 31.4306 202.024 31.5396L200.517 38.8139C200.492 38.9437 200.517 39.0813 200.599 39.1825C200.928 39.5927 201.346 39.912 201.853 40.1405C202.427 40.3975 203.07 40.5273 203.784 40.5273V40.5247Z" fill="black"></path><path d="M220.703 43.9974C219.484 43.9974 218.347 43.9091 217.291 43.7352C216.432 43.5924 215.718 43.4237 215.146 43.2264C214.932 43.1537 214.807 42.933 214.853 42.7097L215.491 39.6749C215.547 39.4153 215.815 39.2543 216.059 39.3478C216.684 39.584 217.388 39.7736 218.166 39.9137C219.142 40.0877 220.055 40.176 220.904 40.176C222.052 40.176 222.881 40.1059 223.385 39.9657C223.89 39.8255 224.189 39.5088 224.281 39.0181C224.395 38.4573 224.115 38.0472 223.437 37.7901C222.758 37.5331 221.766 37.1697 220.456 36.7024C219.053 36.1884 218.025 35.5497 217.373 34.7891C216.717 34.0284 216.539 32.9718 216.84 31.614C217.184 30.0252 217.977 28.8025 219.219 27.9484C220.458 27.0942 222.411 26.6685 225.076 26.6685C226.086 26.6685 227.027 26.7438 227.902 26.8969C228.587 27.0164 229.182 27.154 229.684 27.3097C229.903 27.3772 230.038 27.6031 229.99 27.8315L229.363 30.7885C229.304 31.0585 229.024 31.2116 228.771 31.1026C228.327 30.9105 227.825 30.7599 227.264 30.6483C226.494 30.4977 225.765 30.4198 225.076 30.4198C224.087 30.4198 223.289 30.4899 222.682 30.6301C222.072 30.7703 221.71 31.0741 221.595 31.5413C221.504 32.0554 221.743 32.4188 222.32 32.6291C222.893 32.8394 223.814 33.1561 225.076 33.5767C226.892 34.1842 228.067 34.8981 228.608 35.7159C229.148 36.5362 229.281 37.611 229.006 38.9428C228.661 40.6043 227.84 41.8608 226.542 42.7149C225.244 43.569 223.296 43.9948 220.7 43.9948L220.703 43.9974Z" fill="black"></path></svg> 